# xmcd
#
# Track frame offsets:
#	150
#	18051
#	34256
#	50441
#	69807
#	82488
#	100894
#	120200
#	141534
#	162134
#	176693
#	192305
#	209640
#
# Disc length: 2979 seconds
#
# Revision: 0
# Processed by: cddbd v1.5.1PL0 Copyright (c) Steve Scherf et al.
# Submitted via: audiograbber 1.83.01
#
DISCID=b40ba10d
DTITLE=93.1 FM - Mundo Tropical vol.7
DYEAR=1999
DGENRE=Tropical
TTITLE0=Los Fatales - El Chivo
TTITLE1=El Gran Maracaibo - Tumbalakatin
TTITLE2=La Cumana - Los Compadres
TTITLE3=Chikano - Sin Control
TTITLE4=Agata - La Espinita
TTITLE5=Sonido Profesional - Que difícil es decirte adios
TTITLE6=L´Auténtika - Que pasa con las mujeres
TTITLE7=Platino Super Star - No me quites este amor
TTITLE8=Antillano - Rumba q´ Zumba
TTITLE9=Karibe con K - El jefe
TTITLE10=La Sabrosura - El plenero
TTITLE11=Grupo Jamaica - Juguete caro
TTITLE12=Los Indómitos - Se que no volverás
EXTD=
EXTT0=
EXTT1=
EXTT2=
EXTT3=
EXTT4=
EXTT5=
EXTT6=
EXTT7=
EXTT8=
EXTT9=
EXTT10=
EXTT11=
EXTT12=
PLAYORDER=
